<?xml version="1.0" encoding="utf-8"?><!-- Uploaded to: SVG Repo, www.svgrepo.com, Generator: SVG Repo Mixer Tools -->
<svg fill="#000000" width="800px" height="800px" viewBox="0 0 24 24" id="house" data-name="Flat Color" xmlns="http://www.w3.org/2000/svg" class="icon flat-color"><path id="primary" d="M8,10H20a1,1,0,0,1,1,1V21a1,1,0,0,1-1,1H8a1,1,0,0,1-1-1V11A1,1,0,0,1,8,10ZM4,22a1,1,0,0,0,1-1V11a1,1,0,0,0-2,0V21A1,1,0,0,0,4,22Z" style="fill: rgb(0, 0, 0);"></path><path id="secondary" d="M12,15h4a1,1,0,0,1,1,1v6H11V16A1,1,0,0,1,12,15ZM3,3.17V12H21V5.83a1,1,0,0,0-.84-1l-16-2.66A1,1,0,0,0,3,3.17Z" style="fill: rgb(44, 169, 188);"></path><path id="primary-2" data-name="primary" d="M21,7a1,1,0,0,0,.17-2l-1-.17L3.17,2a1,1,0,0,0-.34,2l1,.17L20.83,7Z" style="fill: rgb(0, 0, 0);"></path></svg>